<?xml version="1.0" standalone="no"?>
<!DOCTYPE svg PUBLIC "-//W3C//DTD SVG 20010904//EN"
 "http://www.w3.org/TR/2001/REC-SVG-20010904/DTD/svg10.dtd">
<svg version="1.0" xmlns="http://www.w3.org/2000/svg"
 width="1024.000000pt" height="1024.000000pt" viewBox="0 0 1024.000000 1024.000000"
 preserveAspectRatio="xMidYMid meet">

<g transform="translate(0.000000,1024.000000) scale(0.100000,-0.100000)"
fill="#9f071299" stroke="none">
<path d="M3615 9850 c-38 -5 -133 -13 -210 -19 -385 -31 -819 -102 -1064 -175
-103 -30 -119 -43 -93 -76 l18 -22 76 25 c62 21 349 84 511 111 36 7 46 0 28
-19 -32 -33 -318 -765 -415 -1061 -101 -311 -111 -384 -51 -384 20 0 26 7 35
43 81 313 291 878 492 1324 57 128 31 113 233 137 135 17 206 23 432 40 l158
11 0 35 c0 34 -1 35 -40 36 -22 1 -71 -2 -110 -6z"/>
<path d="M6675 9826 c-126 -86 -274 -322 -354 -565 -107 -327 -68 -539 105
-567 82 -13 190 60 294 198 127 169 200 361 200 532 0 102 -32 222 -77 288
-30 46 -32 52 -18 68 21 23 19 46 -7 64 -37 26 -88 20 -143 -18z m71 -100 c11
-8 36 -45 55 -82 33 -66 34 -71 34 -183 0 -78 -6 -137 -18 -180 -65 -241 -236
-477 -364 -505 -44 -10 -68 6 -88 58 -21 56 -17 126 16 296 37 183 187 482
289 574 45 41 48 41 76 22z"/>
<path d="M7435 9819 c-75 -18 -179 -20 -310 -7 -26 3 -30 0 -33 -25 -2 -18 4
-37 15 -49 17 -19 26 -20 138 -15 66 4 145 13 175 22 76 21 83 20 69 -6 -6
-12 -50 -76 -98 -143 -311 -432 -498 -776 -460 -848 12 -22 46 -41 63 -35 7 3
21 38 31 79 32 133 136 319 364 653 225 329 231 338 210 377 -12 23 -56 22
-164 -3z"/>
<path d="M3443 9710 c-77 -18 -150 -113 -258 -335 -108 -224 -253 -625 -262
-726 -5 -53 -4 -58 21 -74 39 -26 68 -13 108 47 74 110 269 298 308 298 8 0
10 -20 5 -73 -13 -140 20 -193 118 -185 54 4 116 38 179 96 l28 25 -9 -31
c-12 -41 14 -92 52 -105 50 -16 110 16 211 114 50 49 91 89 91 89 0 0 0 -43 0
-96 0 -89 2 -97 24 -115 52 -42 141 -10 256 93 39 35 65 56 58 48 -6 -8 -17
-37 -23 -63 -10 -37 -10 -50 0 -62 23 -28 47 -15 120 68 105 118 220 217 253
217 3 0 2 -40 -1 -89 -2 -49 -2 -101 2 -115 9 -36 45 -66 79 -66 32 0 123 47
152 80 10 11 21 20 25 20 3 0 6 -25 6 -55 -1 -42 4 -59 20 -75 52 -52 128 -16
262 125 51 53 92 94 92 92 0 -2 -8 -28 -19 -58 -57 -165 -42 -144 -181 -246
-87 -64 -257 -234 -307 -308 -136 -202 -162 -389 -62 -440 141 -73 311 138
498 617 91 232 94 238 139 267 99 65 232 191 232 221 0 11 -4 20 -8 20 -8 0
-139 -106 -197 -159 -47 -43 -55 -45 -46 -14 5 16 23 76 40 134 17 59 31 120
31 137 0 41 -23 59 -60 45 -24 -9 -32 -8 -46 8 -39 43 -149 8 -234 -74 -25
-24 -76 -76 -115 -116 -79 -83 -179 -153 -209 -149 -18 3 -22 11 -24 53 -2 27
2 78 8 112 12 72 4 99 -34 109 -38 9 -98 -28 -245 -153 -32 -27 -42 -32 -37
-18 59 144 68 175 56 190 -7 8 -23 15 -36 15 -19 0 -29 -13 -58 -75 -19 -41
-46 -90 -61 -109 -31 -40 -186 -159 -230 -176 -71 -27 -72 6 -5 244 21 76 21
80 4 93 -15 11 -22 10 -42 -3 -13 -9 -24 -14 -25 -12 -17 33 -30 45 -60 55
-73 24 -173 -28 -268 -141 -91 -108 -202 -191 -280 -209 -39 -10 -52 12 -45
70 12 87 10 171 -3 187 -8 9 -27 16 -43 16 -67 0 -165 -75 -304 -235 -83 -96
-94 -108 -94 -102 0 11 109 295 125 327 10 19 44 59 76 88 32 29 89 92 127
140 217 276 284 449 192 497 -16 8 -30 15 -32 14 -2 -1 -18 -5 -35 -9z m47
-95 c0 -36 -34 -108 -96 -204 -59 -89 -214 -289 -226 -290 -21 -2 121 289 197
405 77 116 125 150 125 89z m1870 -595 c13 -8 12 -15 -8 -53 -43 -82 -243
-287 -280 -287 -11 0 -13 9 -8 41 16 98 122 235 219 284 58 28 57 28 77 15z
m-1326 -53 c4 -18 -11 -39 -87 -113 -154 -152 -221 -182 -177 -80 30 70 78
133 134 174 88 65 117 69 130 19z m1165 -549 c-69 -168 -150 -336 -190 -394
-84 -125 -148 -182 -189 -169 -24 8 -27 26 -18 102 18 152 131 321 336 505 48
43 92 78 99 78 7 0 -8 -49 -38 -122z"/>
<path d="M4177 9268 c-78 -41 -95 -54 -86 -64 15 -18 45 -18 103 2 51 18 116
72 116 98 0 25 -27 18 -133 -36z"/>
<path d="M1035 7295 c-28 -27 -31 -47 -11 -64 12 -10 18 -7 30 18 19 37 47 46
83 29 23 -11 29 -21 31 -56 4 -55 -26 -108 -108 -191 -33 -34 -58 -66 -55 -71
4 -6 55 -10 114 -10 l109 0 4 38 c6 44 2 52 -15 29 -8 -12 -33 -19 -82 -24
l-70 -6 72 78 c78 84 99 127 89 180 -10 50 -47 75 -113 75 -44 0 -58 -5 -78
-25z"/>
<path d="M2443 7308 c-24 -11 -45 -60 -37 -83 11 -27 34 -25 40 3 14 59 72 83
107 44 35 -39 8 -102 -44 -102 -38 0 -39 -27 -1 -36 67 -16 91 -77 51 -128
-31 -40 -80 -36 -115 9 -29 39 -44 38 -44 -3 0 -38 43 -62 110 -62 46 0 56 4
86 34 32 32 39 53 34 101 -2 24 -28 55 -47 55 -19 0 -16 9 8 28 12 10 23 34
26 59 5 35 2 45 -20 67 -22 22 -35 26 -79 25 -29 0 -63 -5 -75 -11z"/>
<path d="M3918 7303 c-15 -17 -81 -119 -126 -194 -34 -56 -31 -59 53 -59 l75
0 0 -34 c0 -25 -5 -35 -20 -39 -11 -3 -20 -10 -20 -16 0 -7 25 -11 65 -11 40
0 65 4 65 11 0 6 -9 13 -20 16 -30 8 -29 70 2 75 30 4 34 26 6 30 -22 3 -23 6
-26 121 -2 105 -4 117 -21 117 -10 0 -25 -8 -33 -17z m2 -143 l0 -80 -50 0
c-27 0 -50 3 -50 6 0 8 92 154 97 154 2 0 3 -36 3 -80z"/>
<path d="M6697 7306 c-87 -24 -147 -108 -147 -207 0 -98 42 -149 124 -149 85
0 139 81 111 164 -20 57 -40 68 -112 62 l-62 -5 10 27 c17 44 48 70 101 82 27
7 47 17 45 23 -5 16 -18 17 -70 3z m23 -183 c18 -22 21 -37 17 -72 -6 -50 -26
-71 -69 -71 -33 0 -68 47 -68 91 0 70 79 104 120 52z"/>
<path d="M9000 7298 c-55 -36 -82 -100 -77 -175 8 -108 72 -173 171 -173 57 0
91 15 105 48 20 43 -4 52 -39 14 -23 -25 -37 -32 -68 -32 -82 0 -134 117 -102
232 22 79 108 104 161 47 32 -34 45 -33 35 3 -12 45 -23 52 -88 56 -53 3 -68
0 -98 -20z"/>
<path d="M666 7279 c-10 -49 11 -68 29 -26 7 16 20 23 48 25 l37 3 0 -146 0
-146 -30 -10 c-52 -18 -33 -29 50 -29 63 0 80 3 80 14 0 8 -10 16 -22 18 -23
3 -23 5 -23 148 l0 145 30 3 c23 3 35 -3 52 -24 27 -34 34 -29 26 19 l-6 37
-132 0 -132 0 -7 -31z"/>
<path d="M2077 7303 c-10 -9 -9 -73 1 -73 5 0 15 11 22 25 10 19 21 25 45 25
31 0 33 -2 38 -47 4 -27 4 -91 2 -143 -3 -52 -5 -98 -5 -102 0 -4 -10 -8 -22
-10 -50 -7 -14 -23 52 -23 39 0 71 4 72 10 1 6 -7 12 -18 14 -31 6 -34 20 -33
131 3 157 6 170 40 170 20 0 34 -8 45 -26 21 -31 36 -18 28 24 l-6 32 -128 0
c-69 0 -130 -3 -133 -7z"/>
<path d="M3467 7303 c-11 -10 -8 -73 3 -73 6 0 16 11 22 25 9 20 18 25 50 25
l39 0 -3 -147 c-3 -147 -3 -147 -27 -153 -14 -3 -26 -11 -29 -18 -3 -9 18 -12
77 -12 82 0 104 12 56 30 l-25 10 0 145 0 145 29 0 c29 0 61 -22 61 -41 0 -5
5 -9 10 -9 6 0 10 18 10 40 l0 40 -133 0 c-74 0 -137 -3 -140 -7z"/>
<path d="M4866 7288 c-9 -35 -7 -58 4 -58 6 0 14 8 17 18 9 23 23 32 56 32
l28 0 -3 -147 c-3 -144 -3 -147 -26 -153 -48 -11 -25 -25 47 -28 76 -3 117 11
67 24 -34 8 -37 24 -34 174 l3 125 30 3 c23 3 35 -3 52 -25 l23 -28 0 43 0 42
-129 0 c-125 0 -129 -1 -135 -22z"/>
<path d="M5190 7220 l0 -90 53 6 c42 5 56 3 74 -12 32 -28 37 -72 13 -111 -17
-28 -25 -33 -59 -33 -31 0 -44 6 -61 27 -16 20 -23 24 -32 15 -17 -17 20 -64
58 -74 116 -31 213 123 127 204 -20 19 -35 23 -84 23 l-59 -1 4 39 c3 22 7 42
10 45 5 4 70 10 126 12 9 0 16 9 17 20 2 19 -4 20 -93 20 l-94 0 0 -90z"/>
<path d="M6230 7270 c0 -46 11 -52 28 -15 9 20 19 25 47 25 l36 0 -3 -147 c-3
-146 -3 -148 -26 -151 -13 -2 -21 -9 -19 -15 4 -15 136 -22 149 -9 6 6 -2 14
-21 20 l-31 11 0 145 0 146 34 0 c25 0 38 -6 50 -25 22 -33 33 -25 28 19 l-4
36 -134 0 -134 0 0 -40z"/>
<path d="M7610 7268 l1 -43 20 28 c16 20 29 27 55 27 l34 0 0 -145 c0 -108 -3
-147 -12 -149 -50 -15 -53 -17 -38 -26 24 -15 153 -13 148 3 -3 6 -14 13 -27
15 -21 3 -21 6 -19 150 l3 147 40 0 c34 0 40 -3 43 -22 6 -39 24 -25 20 15
l-4 37 -132 3 -132 3 0 -43z"/>
<path d="M7926 7294 c-18 -48 3 -83 28 -48 16 21 146 33 146 14 0 -7 -34 -77
-75 -156 -41 -79 -75 -146 -75 -149 0 -3 10 -5 23 -5 19 0 33 24 101 173 44
94 81 175 83 180 3 4 -47 7 -110 7 -96 0 -116 -3 -121 -16z"/>
<path d="M9250 7301 c0 -5 9 -11 20 -14 19 -5 20 -14 20 -155 0 -141 -1 -150
-20 -155 -42 -11 -19 -27 39 -27 63 0 90 15 46 26 l-25 6 0 124 0 124 94 -137
c51 -76 101 -139 110 -141 14 -3 16 14 16 163 0 158 1 167 20 172 41 11 18 23
-45 23 -70 0 -84 -12 -35 -29 l30 -10 0 -108 0 -108 -21 25 c-11 14 -51 71
-90 128 l-69 102 -45 0 c-25 0 -45 -4 -45 -9z"/>
<path d="M9090 6745 c-11 -13 -10 -14 4 -9 9 3 16 10 16 15 0 13 -6 11 -20 -6z"/>
<path d="M9120 6750 c0 -5 7 -10 16 -10 8 0 12 5 9 10 -3 6 -10 10 -16 10 -5
0 -9 -4 -9 -10z"/>
<path d="M9020 6723 c-13 -15 -12 -16 4 -10 10 4 20 7 22 7 2 0 4 5 4 10 0 15
-13 12 -30 -7z"/>
<path d="M9145 6720 c3 -5 10 -10 16 -10 5 0 9 5 9 10 0 6 -7 10 -16 10 -8 0
-12 -4 -9 -10z"/>
<path d="M9104 6711 c4 -5 1 -12 -4 -14 -6 -3 -5 -4 2 -3 15 3 23 26 8 26 -6
0 -9 -4 -6 -9z"/>
<path d="M9173 6703 c-3 -8 -3 -17 1 -20 3 -4 6 -1 6 5 0 7 7 12 15 12 8 0 15
4 15 8 0 14 -32 10 -37 -5z"/>
<path d="M9137 6694 c-3 -3 -3 -12 0 -20 3 -9 -2 -14 -16 -14 -12 0 -21 -6
-21 -15 0 -8 -5 -15 -10 -15 -18 0 -53 -38 -45 -49 10 -16 25 -13 19 4 -4 10
6 20 30 31 19 10 33 21 31 25 -9 13 25 18 70 10 37 -7 43 -6 35 5 -6 7 -21 11
-32 9 -24 -5 -51 12 -42 26 6 10 -9 12 -19 3z"/>
<path d="M8976 6675 c-3 -8 -1 -15 4 -15 6 0 10 7 10 15 0 8 -2 15 -4 15 -2 0
-6 -7 -10 -15z"/>
<path d="M9045 6680 c-8 -13 5 -13 25 0 13 8 13 10 -2 10 -9 0 -20 -4 -23 -10z"/>
<path d="M9240 6671 c0 -10 19 -25 25 -20 1 2 -3 10 -11 17 -8 7 -14 8 -14 3z"/>
<path d="M9285 6670 c-3 -6 1 -7 9 -4 18 7 21 14 7 14 -6 0 -13 -4 -16 -10z"/>
<path d="M9039 6662 c-15 -2 -35 -13 -45 -25 l-19 -22 22 19 c17 14 32 17 60
13 21 -4 34 -3 28 1 -5 4 -12 10 -15 12 -3 3 -17 4 -31 2z"/>
<path d="M9308 6653 c-3 -4 3 -16 14 -25 21 -21 24 -11 4 15 -8 10 -16 15 -18
10z"/>
<path d="M8956 6627 c3 -10 9 -15 12 -12 3 3 0 11 -7 18 -10 9 -11 8 -5 -6z"/>
<path d="M9157 6633 c-4 -3 -7 -13 -7 -22 1 -13 3 -13 11 2 11 19 8 33 -4 20z"/>
<path d="M9006 6591 c-14 -22 -35 -46 -48 -55 -16 -11 -18 -16 -7 -16 16 0 59
40 59 55 0 5 10 19 22 32 12 13 16 23 10 23 -7 0 -23 -18 -36 -39z"/>
<path d="M9171 6598 c-10 -30 -9 -31 4 -14 8 11 15 24 15 29 0 4 4 6 8 3 4 -2
14 -1 22 5 11 6 8 9 -12 9 -21 0 -28 -7 -37 -32z"/>
<path d="M8932 6600 c-7 -11 -12 -25 -12 -32 0 -7 7 0 15 16 18 33 15 45 -3
16z"/>
<path d="M9263 6610 c6 -22 37 -25 37 -3 0 15 -2 16 -10 3 -9 -13 -11 -13 -21
0 -9 13 -10 13 -6 0z"/>
<path d="M9098 6603 c-10 -2 -18 -8 -18 -13 0 -4 9 -6 20 -3 11 3 20 9 20 14
0 5 -1 8 -2 8 -2 -1 -11 -3 -20 -6z"/>
<path d="M8963 6593 c4 -3 1 -13 -6 -21 -10 -13 -9 -14 3 -10 19 6 26 38 9 38
-7 0 -9 -3 -6 -7z"/>
<path d="M9135 6581 c-3 -6 -10 -9 -15 -6 -4 3 -24 -11 -44 -31 -20 -20 -30
-34 -21 -31 8 4 19 -1 24 -11 6 -9 11 -12 11 -7 0 6 13 16 29 23 16 7 32 20
36 30 4 12 0 11 -18 -6 -25 -24 -61 -30 -55 -10 3 7 11 13 19 13 17 0 54 33
46 41 -3 3 -8 0 -12 -5z m-15 -21 c0 -5 -5 -10 -11 -10 -5 0 -7 5 -4 10 3 6 8
10 11 10 2 0 4 -4 4 -10z"/>
<path d="M9190 6569 c0 -5 5 -7 10 -4 15 9 12 -11 -4 -24 -11 -10 -15 -8 -19
6 -4 17 -5 17 -6 0 0 -10 5 -20 13 -23 8 -3 12 -12 10 -19 -4 -10 -12 -11 -31
-4 -32 12 -31 12 -42 -9 -7 -14 -6 -18 9 -18 15 0 17 3 7 15 -10 12 -8 13 13
6 14 -4 30 -11 36 -16 6 -5 18 -3 30 6 17 13 17 14 1 9 -15 -5 -17 -2 -13 17
7 41 18 59 29 52 6 -3 7 -1 3 5 -9 15 -46 16 -46 1z"/>
<path d="M9247 6558 c-4 -12 -1 -28 5 -35 12 -15 44 -17 52 -4 7 11 46 2 46
-11 0 -5 6 -3 14 4 18 17 9 30 -15 23 -11 -4 -31 0 -44 9 -15 10 -26 12 -30 6
-3 -6 -1 -10 6 -10 10 0 10 -3 2 -11 -17 -17 -34 -1 -27 27 3 13 4 24 1 24 -2
0 -7 -10 -10 -22z"/>
<path d="M9270 6576 c0 -2 9 -6 20 -9 11 -3 18 -1 14 4 -5 9 -34 13 -34 5z"/>
<path d="M9036 6544 c-11 -7 -18 -16 -15 -18 2 -2 13 2 23 10 11 7 18 16 15
18 -2 2 -13 -2 -23 -10z"/>
<path d="M9390 6524 c0 -8 5 -12 10 -9 6 4 8 11 5 16 -9 14 -15 11 -15 -7z"/>
<path d="M8886 6498 c3 -4 11 -5 19 -1 21 7 19 12 -4 10 -11 0 -18 -5 -15 -9z"/>
<path d="M8950 6501 c13 -10 11 -15 -12 -36 -16 -13 -28 -27 -28 -31 0 -4 9 1
20 11 24 22 38 13 19 -12 -7 -10 -1 -7 14 6 30 27 33 33 14 25 -9 -3 -13 3
-13 17 1 12 -6 24 -14 26 -13 4 -13 3 0 -6z"/>
<path d="M9293 6499 c-18 -5 -33 -14 -33 -20 0 -6 6 -7 13 -2 6 4 19 6 28 5 9
-2 22 4 29 13 14 17 9 17 -37 4z"/>
<path d="M9565 6500 c-3 -5 -1 -10 4 -10 6 0 11 5 11 10 0 6 -2 10 -4 10 -3 0
-8 -4 -11 -10z"/>
<path d="M9027 6493 c-4 -3 -7 -11 -7 -17 0 -6 5 -5 12 2 6 6 9 14 7 17 -3 3
-9 2 -12 -2z"/>
<path d="M9400 6489 c0 -5 -4 -7 -10 -4 -15 9 -12 -2 6 -19 8 -9 21 -16 27
-16 8 0 7 4 -2 9 -8 5 -11 16 -8 25 4 9 2 16 -3 16 -6 0 -10 -5 -10 -11z"/>
<path d="M9313 6455 c-12 -14 -17 -25 -12 -25 5 0 -6 -14 -26 -31 -21 -19 -35
-40 -35 -55 0 -12 -7 -27 -15 -32 -9 -4 -19 -28 -24 -52 -7 -42 -8 -43 -15
-18 -5 15 -5 32 0 39 4 7 3 10 -3 6 -6 -4 -16 -20 -23 -37 -11 -25 -10 -33 0
-43 10 -10 12 -8 7 5 -3 10 -2 20 3 23 6 4 10 -13 10 -40 0 -38 -3 -46 -15
-41 -9 3 -15 0 -15 -9 0 -9 6 -12 15 -9 13 5 14 2 5 -20 -5 -14 -6 -26 -1 -26
5 0 11 5 13 12 3 7 7 5 11 -6 4 -10 3 -15 -3 -11 -6 3 -10 2 -10 -4 0 -5 6
-12 13 -14 10 -4 10 -6 0 -6 -7 -1 -13 -6 -13 -12 0 -6 6 -9 14 -6 8 3 16 3
18 -1 2 -4 18 -15 36 -25 28 -16 32 -16 32 -3 0 9 5 16 11 16 6 0 9 -6 6 -14
-6 -14 12 -26 38 -26 8 0 16 8 19 18 3 9 16 22 28 27 14 6 23 19 23 33 0 13 7
28 15 33 12 9 12 10 -2 5 -12 -3 -18 0 -18 9 0 8 5 15 11 15 5 0 7 5 3 12 -5
8 -2 9 10 5 10 -4 20 -7 22 -7 3 0 2 -4 -1 -10 -3 -5 -1 -10 4 -10 6 0 11 7
11 15 0 8 -5 15 -10 15 -6 0 -14 8 -17 17 -9 23 -40 53 -55 53 -9 0 -8 3 2 10
22 14 4 24 -50 26 -52 3 -71 -12 -22 -18 22 -2 27 -8 26 -30 0 -16 3 -28 8
-28 4 0 4 -8 1 -17 -6 -16 -5 -16 10 -4 15 12 17 10 18 -15 2 -47 -1 -58 -22
-76 -10 -9 -19 -21 -19 -27 0 -14 -27 -14 -35 -1 -3 6 -1 10 6 10 10 0 10 3 2
11 -6 6 -9 18 -6 25 3 8 1 14 -5 14 -5 0 -7 11 -4 25 3 17 -1 27 -12 31 -25
10 -32 -4 -10 -21 18 -14 17 -14 -8 -4 -16 7 -28 17 -28 23 0 6 -5 4 -11 -4
-9 -13 -10 -13 -6 1 3 9 9 38 12 65 4 27 17 59 28 71 11 13 18 26 14 29 -10
10 13 45 24 39 5 -4 29 5 53 19 24 14 47 21 52 17 5 -5 20 -12 33 -16 17 -5
22 -4 19 6 -3 8 -16 13 -29 12 -22 -2 -22 -2 -4 6 11 5 24 5 29 0 5 -4 17 -4
27 1 19 11 35 -2 24 -20 -3 -5 -1 -10 4 -10 15 0 14 37 -1 42 -7 2 -32 4 -56
3 -32 -1 -42 2 -38 12 3 7 -1 13 -8 13 -8 0 -16 -4 -18 -8 -1 -5 -16 -12 -33
-15 -16 -3 -24 -4 -17 -1 6 3 10 9 7 14 -3 4 4 6 15 3 11 -3 20 0 20 6 0 6 -6
11 -14 11 -8 0 -18 5 -22 12 -5 8 -2 9 10 5 10 -4 15 -3 11 3 -9 15 -18 12
-42 -15z m-43 -361 c16 -41 12 -63 -6 -31 -8 15 -19 25 -24 22 -4 -3 -6 4 -3
15 7 27 22 25 33 -6z m130 -34 c0 -5 -2 -10 -4 -10 -3 0 -8 5 -11 10 -3 6 -1
10 4 10 6 0 11 -4 11 -10z"/>
<path d="M9596 6461 c-4 -6 -2 -11 3 -11 6 0 11 -4 11 -10 0 -5 -9 -10 -19
-10 -10 0 -22 -8 -26 -17 -5 -14 -3 -15 6 -6 9 9 17 5 36 -15 l24 -27 -16 27
c-10 15 -12 29 -6 32 5 3 11 0 14 -6 2 -7 8 -9 13 -5 5 4 4 11 -2 15 -6 4 -15
15 -21 26 -7 12 -13 15 -17 7z"/>
<path d="M9640 6459 c0 -5 5 -7 10 -4 6 3 10 3 10 -2 0 -13 43 -59 63 -66 11
-4 17 -1 17 8 0 8 -3 14 -7 14 -23 -4 -35 3 -30 15 4 10 1 13 -8 10 -7 -3 -18
4 -25 15 -11 22 -30 28 -30 10z"/>
<path d="M8860 6450 c0 -6 4 -9 9 -6 5 4 12 1 14 -4 3 -6 4 -5 3 2 -3 15 -26
23 -26 8z"/>
<path d="M9020 6450 c-9 -6 -10 -10 -3 -10 6 0 15 5 18 10 8 12 4 12 -15 0z"/>
<path d="M9174 6453 c10 -11 37 -12 30 -2 -3 5 -12 9 -21 9 -9 0 -13 -3 -9 -7z"/>
<path d="M9565 6450 c3 -5 8 -10 11 -10 2 0 4 5 4 10 0 6 -5 10 -11 10 -5 0
-7 -4 -4 -10z"/>
<path d="M9716 6453 c6 -4 14 -15 17 -23 5 -11 6 -9 4 4 -1 11 -9 21 -17 23
-10 3 -11 2 -4 -4z"/>
<path d="M9080 6438 c0 -11 28 -10 35 1 3 6 -4 9 -15 8 -11 -1 -20 -5 -20 -9z"/>
<path d="M9262 6428 c3 -14 -5 -14 -34 -3 -11 4 -18 3 -18 -5 0 -6 5 -8 13 -4
8 5 7 2 -2 -9 -21 -26 -8 -30 28 -10 33 19 38 28 21 38 -6 4 -9 1 -8 -7z"/>
<path d="M9032 6411 c12 -19 28 -19 28 0 0 6 -4 7 -10 4 -5 -3 -10 -1 -10 4 0
6 -5 11 -10 11 -6 0 -5 -8 2 -19z"/>
<path d="M9168 6397 c-14 -17 -25 -33 -23 -36 5 -5 55 50 55 60 0 13 -3 11
-32 -24z"/>
<path d="M9533 6415 c0 -8 4 -12 9 -9 4 3 8 9 8 15 0 5 -4 9 -8 9 -5 0 -9 -7
-9 -15z"/>
<path d="M9750 6421 c0 -5 5 -13 10 -16 6 -3 10 -2 10 4 0 5 -4 13 -10 16 -5
3 -10 2 -10 -4z"/>
<path d="M9796 6417 c4 -10 -3 -20 -21 -30 -20 -10 -23 -15 -13 -19 8 -3 23 5
35 18 18 20 19 25 7 35 -12 9 -13 9 -8 -4z"/>
<path d="M8890 6405 c-11 -13 -10 -14 4 -9 9 3 16 10 16 15 0 13 -6 11 -20 -6z"/>
<path d="M2332 6378 c-37 -21 -50 -34 -43 -41 7 -7 18 -7 35 1 13 6 27 8 30 5
3 -4 6 -69 6 -145 l0 -138 -25 -10 c-48 -18 -26 -30 55 -30 80 0 106 13 50 25
l-30 7 0 179 c0 137 -3 179 -12 178 -7 0 -37 -14 -66 -31z"/>
<path d="M3669 6381 c-30 -31 -35 -46 -20 -70 8 -12 12 -12 25 -2 8 7 18 21
21 32 7 22 44 34 73 24 11 -3 25 -20 31 -37 19 -53 -8 -112 -95 -207 -46 -51
-72 -87 -66 -93 5 -5 58 -7 118 -6 l109 3 3 38 c3 37 -13 52 -24 22 -5 -11
-23 -15 -77 -15 l-71 0 71 73 c84 85 93 101 93 162 0 38 -5 52 -29 76 -25 25
-37 29 -81 29 -44 0 -56 -4 -81 -29z"/>
<path d="M5063 6391 c-25 -16 -33 -28 -33 -51 0 -40 24 -40 45 0 28 55 105 33
105 -30 0 -46 -10 -59 -51 -70 -48 -13 -50 -27 -4 -36 57 -10 81 -64 54 -117
-16 -30 -28 -37 -65 -37 -20 0 -39 9 -54 25 -27 29 -50 33 -50 8 1 -41 39 -63
109 -63 44 0 56 5 87 33 30 28 37 40 38 76 1 36 -4 47 -31 71 l-31 28 24 21
c33 29 34 98 1 129 -34 32 -104 38 -144 13z"/>
<path d="M6474 6293 c-43 -65 -78 -127 -78 -138 -1 -18 6 -20 72 -23 l72 -3 0
-38 c0 -30 -4 -40 -20 -44 -11 -3 -20 -10 -20 -16 0 -7 24 -11 64 -11 67 0 95
13 51 24 -21 5 -25 12 -25 45 0 33 4 40 22 43 31 4 34 26 4 34 l-26 6 0 119
c0 112 -1 119 -20 119 -14 0 -41 -33 -96 -117z m66 -47 l0 -74 -55 -4 c-30 -1
-54 -1 -53 2 15 30 95 150 101 150 4 0 7 -33 7 -74z"/>
<path d="M8940 6400 c-8 -5 -12 -12 -9 -15 4 -3 12 1 19 10 14 17 11 19 -10 5z"/>
<path d="M9090 6400 c-8 -5 -11 -12 -7 -16 4 -4 -1 -16 -10 -27 -18 -19 -17
-20 5 -8 13 7 21 18 19 26 -3 7 0 18 6 24 13 13 7 14 -13 1z"/>
<path d="M9646 6401 c-10 -15 12 -61 29 -61 8 0 15 5 15 10 0 6 6 10 14 10 23
0 55 -54 66 -111 6 -29 13 -55 17 -58 3 -3 3 5 0 19 -4 14 -7 42 -7 62 0 20
-7 43 -15 52 -24 24 -17 28 15 9 26 -15 32 -15 39 -4 5 7 13 11 19 7 6 -4 8 2
5 14 -5 17 -7 18 -20 5 -8 -9 -20 -12 -26 -8 -7 4 -21 8 -32 8 -11 1 -33 7
-48 13 -36 15 -37 15 -37 -5 -1 -16 -2 -16 -15 1 -19 26 -19 40 1 32 8 -3 12
-2 9 4 -8 13 -22 13 -29 1z"/>
<path d="M7790 6299 c0 -93 1 -100 18 -93 76 33 132 3 132 -71 0 -84 -74 -118
-128 -59 -26 30 -53 26 -45 -6 8 -30 45 -51 91 -52 71 -1 128 43 138 107 12
84 -48 143 -132 130 -48 -7 -51 -3 -38 63 6 31 7 31 78 34 65 3 71 5 74 26 3
21 1 22 -92 22 l-96 0 0 -101z"/>
<path d="M9009 6373 c-13 -16 -12 -17 4 -4 9 7 17 15 17 17 0 8 -8 3 -21 -13z"/>
<path d="M9529 6378 c7 -10 9 -18 3 -18 -5 0 -13 -7 -16 -16 -3 -8 -2 -12 4
-9 17 10 34 -6 19 -17 -11 -7 -9 -8 4 -4 10 3 23 6 28 6 5 0 9 4 9 10 0 5 -7
6 -17 3 -11 -4 -14 -3 -9 5 4 7 2 12 -4 12 -6 0 -9 4 -6 9 3 5 -2 15 -12 22
-15 13 -16 12 -3 -3z"/>
<path d="M8960 6369 c0 -5 5 -7 10 -4 6 3 10 8 10 11 0 2 -4 4 -10 4 -5 0 -10
-5 -10 -11z"/>
<path d="M9359 6349 l-24 -20 28 17 c15 9 27 18 27 20 0 8 -8 4 -31 -17z"/>
<path d="M9460 6352 c0 -10 -6 -24 -12 -31 -11 -10 -10 -11 5 -6 9 4 17 11 17
15 0 5 3 15 6 24 3 9 1 16 -5 16 -6 0 -11 -8 -11 -18z"/>
<path d="M9565 6360 c3 -5 8 -10 11 -10 2 0 4 5 4 10 0 6 -5 10 -11 10 -5 0
-7 -4 -4 -10z"/>
<path d="M8910 6350 c-9 -6 -10 -10 -3 -10 6 0 14 -17 16 -37 3 -35 4 -34 5
10 1 26 1 47 0 47 -2 0 -10 -5 -18 -10z"/>
<path d="M9112 6330 c-7 -11 -8 -20 -3 -20 9 0 24 30 18 36 -1 2 -8 -6 -15
-16z"/>
<path d="M9613 6343 c-13 -2 -23 -8 -23 -12 0 -5 11 -6 25 -3 14 2 25 8 25 13
0 5 -1 8 -2 8 -2 -1 -13 -4 -25 -6z"/>
<path d="M9700 6340 c0 -6 4 -10 8 -10 4 0 8 -9 9 -20 2 -18 -8 -25 -29 -21
-12 2 -10 -17 2 -24 6 -3 10 -11 10 -16 0 -6 -7 -3 -16 5 -8 9 -17 16 -18 16
-6 0 3 -92 8 -98 3 -3 6 2 6 11 0 8 6 18 13 20 7 3 5 6 -5 6 -10 1 -18 8 -18
17 0 14 3 14 16 3 13 -10 17 -10 24 0 4 7 6 21 3 30 -2 10 3 23 11 30 19 16
21 1 4 -18 -11 -11 -10 -12 1 -6 14 8 14 7 -9 -38 -11 -23 -11 -30 0 -40 10
-10 12 -8 8 9 -3 12 -2 28 3 35 6 10 9 6 9 -13 0 -16 5 -28 10 -28 6 0 10 -6
9 -12 -3 -29 1 -42 11 -32 7 7 5 25 -9 57 -12 27 -16 47 -10 49 13 4 -6 58
-20 58 -6 0 -8 6 -5 14 3 7 -2 16 -10 19 -9 4 -16 2 -16 -3z"/>
<path d="M9180 6319 c0 -5 5 -7 10 -4 6 3 10 8 10 11 0 2 -4 4 -10 4 -5 0 -10
-5 -10 -11z"/>
<path d="M9280 6325 c0 -2 7 -8 15 -15 12 -10 15 -10 15 2 0 8 -7 15 -15 15
-8 0 -15 -1 -15 -2z"/>
<path d="M9642 6315 c-7 -9 -8 -15 -2 -15 5 0 10 -5 10 -11 0 -6 -6 -9 -13 -6
-16 6 -45 -9 -36 -18 4 -3 19 -1 34 5 19 7 25 15 21 26 -4 11 -2 15 8 11 10
-4 13 -1 9 9 -7 18 -14 17 -31 -1z"/>
<path d="M9831 6312 c3 -19 -2 -25 -11 -12 -5 8 -13 11 -17 6 -4 -5 -2 -11 5
-13 6 -3 9 -10 5 -16 -3 -7 4 -3 18 8 13 11 25 20 27 21 2 1 -4 4 -12 7 -9 4
-15 3 -15 -1z"/>
<path d="M8886 6295 c-11 -8 -15 -15 -9 -15 6 0 16 7 23 15 16 19 11 19 -14 0z"/>
<path d="M9564 6296 c-16 -12 -17 -17 -6 -28 11 -11 12 -10 7 5 -6 13 -2 17
20 17 15 0 24 4 20 10 -8 14 -18 13 -41 -4z"/>
<path d="M9087 6293 c-4 -3 -7 -11 -7 -17 0 -6 5 -5 12 2 6 6 9 14 7 17 -3 3
-9 2 -12 -2z"/>
<path d="M9446 6285 c4 -8 10 -15 15 -15 4 0 6 7 3 15 -4 8 -10 15 -15 15 -4
0 -6 -7 -3 -15z"/>
<path d="M8945 6280 c-4 -6 -3 -16 3 -22 6 -6 12 -6 17 2 4 6 3 16 -3 22 -6 6
-12 6 -17 -2z"/>
<path d="M9268 6278 c-30 -10 -34 -23 -17 -48 9 -13 10 -13 8 0 -3 29 1 40 15
40 8 0 18 5 21 10 3 6 5 10 3 9 -2 0 -15 -5 -30 -11z"/>
<path d="M9380 6275 c0 -2 10 -10 23 -16 20 -11 21 -11 8 4 -13 16 -31 23 -31
12z"/>
<path d="M9526 6267 c3 -10 9 -15 12 -12 3 3 0 11 -7 18 -10 9 -11 8 -5 -6z"/>
<path d="M9480 6262 c0 -10 21 -32 30 -32 4 0 7 6 7 14 0 8 -6 12 -15 8 -10
-3 -13 -1 -8 6 4 7 2 12 -3 12 -6 0 -11 -4 -11 -8z"/>
<path d="M9830 6259 c0 -5 -4 -8 -9 -4 -5 3 -12 2 -15 -3 -2 -4 4 -9 15 -9 10
-1 19 5 19 13 0 8 -2 14 -5 14 -3 0 -5 -5 -5 -11z"/>
<path d="M9620 6260 c-7 -24 -4 -47 7 -47 7 0 13 3 12 6 -1 11 -18 46 -19 41z"/>
<path d="M9437 6227 c3 -15 9 -27 14 -27 13 0 11 13 -5 35 -13 18 -14 18 -9
-8z"/>
<path d="M8932 6220 c0 -14 2 -19 5 -12 2 6 2 18 0 25 -3 6 -5 1 -5 -13z"/>
<path d="M9080 6221 c0 -10 -7 -21 -15 -25 -10 -3 -14 -17 -14 -38 l2 -33 4
30 c3 16 13 35 24 43 20 14 26 42 9 42 -5 0 -10 -9 -10 -19z"/>
<path d="M9116 6225 c-9 -26 -7 -32 5 -12 6 10 9 21 6 23 -2 3 -7 -2 -11 -11z"/>
<path d="M8960 6215 c0 -8 2 -15 4 -15 2 0 6 7 10 15 3 8 1 15 -4 15 -6 0 -10
-7 -10 -15z"/>
<path d="M9011 6214 c0 -11 3 -14 6 -6 3 7 2 16 -1 19 -3 4 -6 -2 -5 -13z"/>
<path d="M9270 6198 c0 -23 3 -29 9 -19 8 12 4 51 -5 51 -2 0 -4 -15 -4 -32z"/>
<path d="M9291 6218 c0 -7 4 -22 9 -33 8 -18 9 -17 9 7 1 15 -3 30 -9 33 -5 3
-10 0 -9 -7z"/>
<path d="M9560 6220 c0 -5 5 -10 11 -10 5 0 7 5 4 10 -3 6 -8 10 -11 10 -2 0
-4 -4 -4 -10z"/>
<path d="M9470 6209 c0 -5 5 -7 10 -4 6 3 10 8 10 11 0 2 -4 4 -10 4 -5 0 -10
-5 -10 -11z"/>
<path d="M9532 6190 c12 -16 25 -30 29 -30 4 0 19 -25 33 -55 15 -30 31 -57
36 -60 12 -7 0 37 -15 55 -7 8 -11 26 -9 40 3 19 2 21 -5 10 -9 -12 -11 -12
-17 3 -3 9 -12 17 -20 17 -13 0 -19 13 -15 33 1 5 -3 6 -9 2 -5 -3 -10 -1 -10
4 0 6 -5 11 -10 11 -6 0 -1 -13 12 -30z"/>
<path d="M9798 6198 c-2 -13 -1 -34 3 -48 5 -19 7 -14 8 23 1 50 -4 62 -11 25z"/>
<path d="M9825 6180 c-3 -11 -2 -27 3 -37 8 -13 10 -9 10 20 0 42 -4 46 -13
17z"/>
<path d="M8936 6177 c3 -10 9 -15 12 -12 3 3 0 11 -7 18 -10 9 -11 8 -5 -6z"/>
<path d="M9450 6180 c-9 -6 -10 -10 -3 -10 6 0 15 5 18 10 8 12 4 12 -15 0z"/>
<path d="M9691 6183 c4 -18 -14 -64 -21 -54 -4 7 -7 -5 -8 -26 -1 -21 2 -33 6
-28 9 13 32 17 32 6 0 -5 -7 -12 -16 -15 -9 -4 -14 -9 -10 -13 7 -7 46 26 46
39 0 5 -4 7 -9 3 -13 -7 -24 31 -14 47 11 19 12 37 2 44 -5 3 -9 2 -8 -3z"/>
<path d="M9080 6161 c0 -25 6 -27 13 -6 4 8 2 17 -3 20 -6 4 -10 -3 -10 -14z"/>
<path d="M9116 6155 c5 -20 4 -26 -5 -21 -6 4 -11 2 -11 -3 0 -6 6 -11 14 -11
8 0 13 -6 12 -14 0 -8 3 -15 9 -15 14 -1 6 60 -11 77 -13 13 -14 11 -8 -13z"/>
<path d="M9011 6153 c-1 -12 4 -25 9 -28 12 -7 12 2 0 30 -8 19 -9 19 -9 -2z"/>
<path d="M9510 6160 c0 -5 5 -10 11 -10 5 0 7 5 4 10 -3 6 -8 10 -11 10 -2 0
-4 -4 -4 -10z"/>
<path d="M9720 6165 c0 -3 7 -16 16 -30 14 -21 14 -26 -1 -49 -17 -26 -27
-156 -12 -156 6 0 11 60 10 107 -1 7 4 10 9 7 6 -4 7 2 3 16 -5 15 -4 20 4 16
16 -10 14 30 -4 64 -14 28 -25 38 -25 25z"/>
<path d="M9850 6160 c0 -5 5 -10 11 -10 5 0 7 5 4 10 -3 6 -8 10 -11 10 -2 0
-4 -4 -4 -10z"/>
<path d="M8961 6151 c-8 -5 -9 -11 -3 -15 5 -3 12 1 16 9 6 17 6 18 -13 6z"/>
<path d="M8877 6125 c-4 -8 -2 -17 3 -20 6 -4 10 3 10 14 0 25 -6 27 -13 6z"/>
<path d="M8991 6125 c-1 -21 15 -53 22 -45 2 3 -2 19 -9 35 -10 23 -13 25 -13
10z"/>
<path d="M9333 6118 c1 -13 -2 -29 -7 -36 -7 -11 -4 -12 13 -3 11 7 21 19 21
29 0 14 -2 14 -9 3 -7 -11 -10 -10 -14 8 -5 21 -5 21 -4 -1z"/>
<path d="M9777 6134 c-11 -11 -8 -26 3 -19 6 3 10 2 10 -4 0 -5 -4 -11 -9 -13
-4 -1 -5 -12 0 -23 7 -19 8 -19 8 3 1 13 5 21 10 17 5 -3 13 0 17 7 4 7 3 9
-1 5 -5 -4 -14 2 -20 13 -6 11 -14 17 -18 14z"/>
<path d="M9633 6115 c0 -8 4 -12 9 -9 5 3 6 10 3 15 -9 13 -12 11 -12 -6z"/>
<path d="M8909 6118 c-7 -19 -8 -69 -2 -65 9 6 17 67 8 67 -3 0 -5 -1 -6 -2z"/>
<path d="M8942 6100 c0 -14 2 -19 5 -12 2 6 2 18 0 25 -3 6 -5 1 -5 -13z"/>
<path d="M8963 6087 c2 -21 -1 -38 -7 -41 -6 -2 -3 -5 6 -5 13 -1 16 7 14 34
-2 20 -6 39 -10 42 -4 4 -5 -9 -3 -30z"/>
<path d="M9710 6116 c0 -2 7 -7 16 -10 8 -3 12 -2 9 4 -6 10 -25 14 -25 6z"/>
<path d="M9823 6089 c-12 -30 -11 -32 3 -17 9 8 14 23 12 33 -2 12 -7 7 -15
-16z"/>
<path d="M8850 6101 c0 -5 5 -13 10 -16 6 -3 10 -2 10 4 0 5 -4 13 -10 16 -5
3 -10 2 -10 -4z"/>
<path d="M9440 6098 c-2 -5 -4 -12 -5 -18 -1 -5 -3 -11 -5 -12 -1 -2 -3 -15
-4 -30 -2 -32 9 -37 17 -8 3 11 0 20 -5 20 -6 0 -6 6 2 15 6 8 10 20 7 27 -3
7 -6 10 -7 6z"/>
<path d="M9067 6073 c3 -7 6 -13 8 -13 2 0 5 6 8 13 3 8 -1 14 -8 14 -7 0 -11
-6 -8 -14z"/>
<path d="M9037 6060 c3 -11 9 -20 13 -20 5 0 6 9 3 20 -3 11 -9 20 -13 20 -5
0 -6 -9 -3 -20z"/>
<path d="M9100 6074 c0 -6 7 -17 15 -24 8 -7 12 -17 8 -24 -4 -7 -1 -6 9 1 8
7 18 10 21 6 4 -3 6 5 5 20 -2 22 -5 24 -21 15 -15 -7 -22 -7 -28 3 -5 8 -9 9
-9 3z"/>
<path d="M9582 6060 c12 -19 28 -27 28 -14 0 7 -27 34 -34 34 -4 0 -1 -9 6
-20z"/>
<path d="M8870 6061 c0 -6 4 -13 10 -16 6 -3 7 1 4 9 -7 18 -14 21 -14 7z"/>
<path d="M9525 6037 l-20 -20 25 13 c32 16 33 17 23 23 -4 2 -17 -5 -28 -16z"/>
<path d="M9757 6039 c-4 -16 -3 -18 9 -8 7 6 11 15 8 20 -8 13 -11 11 -17 -12z"/>
<path d="M8910 6031 c0 -5 5 -13 10 -16 6 -3 10 -17 10 -30 0 -30 20 -75 33
-75 5 0 5 6 -2 13 -6 8 -8 17 -4 20 3 4 1 7 -5 7 -7 0 -12 5 -12 11 0 6 9 9
20 6 11 -3 20 -1 20 4 0 5 -7 9 -15 9 -9 0 -19 8 -22 18 -9 22 -33 47 -33 33z"/>
<path d="M9082 6018 c7 -15 15 -23 17 -17 2 6 -4 18 -13 27 -15 15 -15 15 -4
-10z"/>
<path d="M9688 6024 c-3 -12 -2 -28 3 -35 4 -8 3 -19 -3 -27 -10 -11 -14 -9
-25 10 -11 18 -13 18 -8 3 4 -11 10 -28 12 -37 3 -10 9 -18 14 -18 5 0 6 7 3
15 -4 8 -2 15 4 15 16 0 21 24 13 61 -6 29 -8 31 -13 13z"/>
<path d="M9186 6017 c2 -7 14 -19 27 -26 21 -13 21 -12 -2 13 -27 29 -33 32
-25 13z"/>
<path d="M9456 6013 c-6 -14 -5 -15 5 -6 7 7 10 15 7 18 -3 3 -9 -2 -12 -12z"/>
<path d="M9647 6013 c6 -16 8 -16 23 1 9 12 8 15 -8 13 -12 0 -18 -6 -15 -14z"/>
<path d="M9055 6011 c-3 -5 -1 -12 5 -16 5 -3 10 1 10 9 0 18 -6 21 -15 7z"/>
<path d="M9177 5991 c18 -35 43 -52 43 -31 0 6 -4 8 -10 5 -5 -3 -10 -3 -10 2
0 4 -10 19 -21 33 l-21 25 19 -34z"/>
<path d="M9220 6015 c0 -3 14 -14 31 -24 25 -15 28 -21 17 -32 -19 -20 -19
-49 0 -41 11 4 14 1 10 -10 -4 -10 2 -19 18 -27 15 -7 23 -7 19 -1 -3 5 -1 11
4 11 44 5 78 4 88 -4 13 -9 59 10 49 21 -4 3 -12 0 -18 -6 -17 -17 -33 -15
-18 3 7 8 19 15 26 15 8 0 14 7 14 16 0 8 4 13 9 9 5 -3 12 -2 15 3 2 4 -4 9
-15 9 -10 1 -19 -4 -19 -12 0 -22 -64 -42 -76 -24 -3 5 -1 9 4 9 5 0 9 7 9 15
0 21 -10 19 -24 -5 -11 -16 -10 -21 5 -29 24 -14 6 -14 -20 0 -21 11 -21 12
-3 25 10 8 15 17 12 21 -4 3 -17 -3 -30 -15 -26 -24 -42 -28 -53 -11 -4 8 1 9
16 4 15 -5 20 -4 16 4 -4 6 0 11 8 11 31 0 15 19 -29 36 -25 9 -45 21 -45 25
0 5 -4 9 -10 9 -5 0 -10 -2 -10 -5z m100 -115 c-19 -13 -30 -13 -30 0 0 6 10
10 23 10 18 0 19 -2 7 -10z"/>
<path d="M9562 6000 c0 -14 2 -19 5 -12 2 6 2 18 0 25 -3 6 -5 1 -5 -13z"/>
<path d="M9584 5999 c0 -20 11 -25 20 -10 3 5 0 13 -7 19 -10 8 -13 6 -13 -9z"/>
<path d="M9120 6000 c0 -5 5 -10 11 -10 5 0 7 5 4 10 -3 6 -8 10 -11 10 -2 0
-4 -4 -4 -10z"/>
<path d="M9354 5993 c-9 -15 -7 -18 10 -19 15 -1 22 4 22 17 0 24 -18 25 -32
2z"/>
<path d="M9625 6000 c-5 -8 10 -50 19 -50 1 0 1 14 -2 30 -5 32 -7 36 -17 20z"/>
<path d="M9765 6000 c-3 -5 -1 -10 4 -10 6 0 11 5 11 10 0 6 -2 10 -4 10 -3 0
-8 -4 -11 -10z"/>
<path d="M9526 5991 c-4 -5 -17 -8 -31 -7 -13 2 -22 -1 -19 -5 9 -15 51 -10
58 6 6 16 1 20 -8 6z"/>
<path d="M9020 5985 c0 -5 5 -17 10 -25 5 -8 10 -10 10 -5 0 6 -5 17 -10 25
-5 8 -10 11 -10 5z"/>
<path d="M9412 5977 c-19 -23 6 -34 26 -12 10 10 12 15 5 11 -6 -3 -13 -1 -15
5 -2 7 -8 6 -16 -4z"/>
<path d="M8880 5971 c0 -5 7 -12 16 -15 14 -5 15 -4 4 9 -14 17 -20 19 -20 6z"/>
<path d="M9116 5957 c10 -12 21 -24 23 -27 2 -3 1 6 -2 20 l-6 25 20 -25 19
-25 -8 25 c-7 17 -17 25 -37 27 -27 2 -27 2 -9 -20z"/>
<path d="M9081 5937 c17 -32 19 -33 19 -10 0 12 -7 23 -15 27 -13 5 -14 2 -4
-17z"/>
<path d="M9563 5953 c-7 -2 -13 -14 -13 -25 0 -12 3 -18 7 -15 3 4 12 -1 19
-11 12 -15 13 -15 14 -1 0 9 -8 20 -17 24 -17 6 -17 7 1 21 19 14 13 17 -11 7z"/>
<path d="M9505 5940 c3 -5 8 -10 11 -10 2 0 4 5 4 10 0 6 -5 10 -11 10 -5 0
-7 -4 -4 -10z"/>
<path d="M9595 5940 c-3 -5 -1 -10 4 -10 6 0 11 5 11 10 0 6 -2 10 -4 10 -3 0
-8 -4 -11 -10z"/>
<path d="M9010 5931 c0 -6 5 -11 12 -11 9 0 9 -3 0 -12 -7 -7 -12 -21 -11 -32
1 -18 2 -18 8 3 l6 24 25 -27 c31 -32 47 -34 23 -2 -10 13 -21 22 -25 19 -5
-2 -8 2 -8 10 0 8 -7 20 -15 27 -10 9 -15 9 -15 1z"/>
<path d="M9202 5932 c-13 -4 -22 -11 -21 -17 7 -34 12 -45 20 -45 5 0 4 12 -1
26 -9 24 -8 26 10 21 11 -3 18 -1 15 3 -3 5 1 11 7 13 18 8 -3 6 -30 -1z"/>
<path d="M9622 5931 c6 -21 24 -25 31 -6 4 8 2 15 -3 15 -6 0 -10 -6 -10 -12
0 -9 -4 -8 -11 2 -9 12 -10 12 -7 1z"/>
<path d="M9470 5895 c-37 -27 -36 -32 4 -14 14 7 27 18 30 25 7 17 8 18 -34
-11z"/>
<path d="M9128 5887 c12 -13 22 -28 22 -33 0 -18 35 -31 58 -23 29 11 28 23
-1 15 -18 -4 -31 2 -55 29 -16 19 -34 35 -38 35 -4 0 2 -10 14 -23z"/>
<path d="M9519 5903 c0 -5 -2 -16 -4 -25 -2 -10 4 -22 13 -27 17 -10 10 -26
-10 -26 -6 0 -13 -7 -15 -15 -4 -13 -3 -13 6 0 6 8 11 11 11 6 0 -5 10 -1 21
10 22 19 22 19 14 -6 -7 -23 -7 -23 18 5 25 30 29 47 5 27 -9 -7 -19 -7 -33 1
-22 13 -25 24 -12 45 5 7 4 12 -2 12 -6 0 -11 -3 -12 -7z"/>
<path d="M9607 5903 c-4 -3 -7 -11 -7 -17 0 -6 5 -5 12 2 6 6 9 14 7 17 -3 3
-9 2 -12 -2z"/>
<path d="M8970 5891 c0 -10 19 -25 25 -20 1 2 -3 10 -11 17 -8 7 -14 8 -14 3z"/>
<path d="M9220 5896 c0 -2 9 -6 20 -9 11 -3 20 -1 20 4 0 5 -9 9 -20 9 -11 0
-20 -2 -20 -4z"/>
<path d="M9545 5890 c-3 -5 -2 -10 4 -10 5 0 13 5 16 10 3 6 2 10 -4 10 -5 0
-13 -4 -16 -10z"/>
<path d="M9336 5865 c4 -8 10 -15 15 -15 5 0 9 7 9 15 0 8 -7 15 -15 15 -9 0
-12 -6 -9 -15z"/>
<path d="M9373 5868 c7 -21 -21 -32 -40 -17 -7 7 -16 9 -20 5 -3 -3 -1 -6 7
-6 21 0 -8 -28 -32 -32 -12 -2 -23 -9 -26 -16 -3 -11 -1 -11 17 0 18 11 23 11
30 -1 6 -9 11 -10 15 -2 4 6 13 11 19 11 7 -1 -1 -12 -18 -26 -20 -17 -24 -22
-10 -17 29 10 46 29 40 45 -3 8 7 21 25 31 16 10 30 13 30 8 0 -6 7 -11 15
-11 21 0 19 17 -2 23 -10 2 -27 8 -37 13 -15 6 -18 4 -13 -8z m-38 -48 c-3 -5
-11 -10 -16 -10 -6 0 -7 5 -4 10 3 6 11 10 16 10 6 0 7 -4 4 -10z"/>
<path d="M9476 5869 c-10 -6 -27 -20 -37 -30 -11 -11 -28 -19 -39 -19 -11 0
-20 -5 -20 -11 0 -6 7 -8 16 -5 9 3 27 9 40 12 13 3 24 13 24 20 0 11 5 12 18
5 15 -8 18 -6 18 15 0 13 0 24 0 24 -1 0 -9 -5 -20 -11z"/>
<path d="M9030 5861 c0 -6 4 -13 10 -16 6 -3 7 1 4 9 -7 18 -14 21 -14 7z"/>
<path d="M9100 5859 c0 -5 5 -9 11 -9 6 0 9 -7 5 -15 -3 -9 0 -15 8 -15 7 0
19 -7 26 -15 7 -8 17 -15 23 -15 5 0 -1 9 -14 21 -13 11 -24 28 -24 36 0 9 -8
17 -18 19 -9 1 -17 -2 -17 -7z"/>
<path d="M9614 5838 l-29 -33 33 29 c30 28 37 36 29 36 -2 0 -16 -15 -33 -32z"/>
<path d="M9275 5850 c-3 -5 -2 -10 4 -10 5 0 13 5 16 10 3 6 2 10 -4 10 -5 0
-13 -4 -16 -10z"/>
<path d="M8986 5837 c3 -10 9 -15 12 -12 3 3 0 11 -7 18 -10 9 -11 8 -5 -6z"/>
<path d="M9011 5824 c0 -11 3 -14 6 -6 3 7 2 16 -1 19 -3 4 -6 -2 -5 -13z"/>
<path d="M9071 5824 c0 -11 3 -14 6 -6 3 7 2 16 -1 19 -3 4 -6 -2 -5 -13z"/>
<path d="M8965 5810 c3 -5 8 -10 11 -10 2 0 4 5 4 10 0 6 -5 10 -11 10 -5 0
-7 -4 -4 -10z"/>
<path d="M9093 5806 c0 -8 3 -15 6 -14 21 2 31 -4 31 -19 0 -15 2 -15 9 -4 7
11 3 20 -11 33 -25 22 -35 23 -35 4z"/>
<path d="M9460 5800 c-6 -11 -8 -20 -6 -20 3 0 10 9 16 20 6 11 8 20 6 20 -3
0 -10 -9 -16 -20z"/>
<path d="M9050 5805 c0 -6 5 -16 12 -23 14 -14 19 -42 8 -42 -5 0 -8 -9 -7
-21 1 -19 2 -19 15 -2 8 11 22 17 36 15 13 -2 27 2 32 9 4 8 3 10 -4 5 -13 -8
-64 3 -58 13 3 4 -4 18 -15 31 -10 14 -19 20 -19 15z"/>
<path d="M9013 5786 c5 -14 3 -17 -8 -12 -8 3 -15 1 -15 -4 0 -12 37 -14 43
-2 3 4 -2 14 -11 22 -14 13 -15 12 -9 -4z"/>
<path d="M9210 5785 c-7 -9 -10 -18 -7 -22 4 -3 -3 -22 -14 -42 l-21 -36 29
33 c16 19 32 29 38 25 6 -5 21 2 37 18 l27 26 -24 -5 c-14 -2 -22 -8 -19 -13
3 -5 -6 -8 -20 -7 -15 1 -26 6 -26 11 0 5 7 7 15 3 9 -3 15 0 15 9 0 19 -14
19 -30 0z"/>
<path d="M9399 5783 c-12 -15 -12 -16 3 -10 9 3 18 1 21 -6 2 -8 5 -8 11 1 4
7 2 12 -4 12 -6 0 -8 5 -5 10 10 17 -12 11 -26 -7z"/>
<path d="M9340 5758 c-29 -29 -30 -32 -13 -41 10 -6 21 -15 24 -20 4 -5 9 -5
13 2 4 6 2 11 -4 11 -6 0 -8 5 -5 10 4 6 16 8 28 4 20 -6 20 -6 3 12 -18 17
-19 17 -32 -1 -8 -10 -17 -15 -21 -11 -4 3 5 18 20 32 25 23 33 34 23 34 -3 0
-19 -14 -36 -32z"/>
<path d="M9100 5770 c0 -5 5 -10 10 -10 6 0 10 5 10 10 0 6 -4 10 -10 10 -5 0
-10 -4 -10 -10z"/>
<path d="M9169 5771 c-15 -5 -15 -8 -3 -19 12 -11 15 -10 20 3 8 20 3 24 -17
16z"/>
<path d="M9500 5769 c0 -5 5 -7 10 -4 6 3 10 8 10 11 0 2 -4 4 -10 4 -5 0 -10
-5 -10 -11z"/>
<path d="M9450 5760 c-8 -5 -12 -12 -9 -15 4 -3 12 1 19 10 14 17 11 19 -10 5z"/>
<path d="M9261 5731 c-12 -17 -27 -29 -34 -27 -7 1 -9 1 -5 -1 4 -2 4 -12 1
-21 -5 -13 -3 -14 7 -5 7 6 19 9 26 6 8 -3 14 0 14 7 0 6 -4 8 -10 5 -18 -11
-11 8 12 32 12 13 19 25 16 29 -3 3 -15 -8 -27 -25z"/>
<path d="M9115 5700 c3 -5 8 -10 11 -10 2 0 4 5 4 10 0 6 -5 10 -11 10 -5 0
-7 -4 -4 -10z"/>
<path d="M9033 5685 c0 -8 4 -12 9 -9 4 3 8 9 8 15 0 5 -4 9 -8 9 -5 0 -9 -7
-9 -15z"/>
<path d="M9126 5657 c3 -10 9 -15 12 -12 3 3 0 11 -7 18 -10 9 -11 8 -5 -6z"/>
<path d="M9208 5633 c7 -3 16 -2 19 1 4 3 -2 6 -13 5 -11 0 -14 -3 -6 -6z"/>
<path d="M2304 5386 c-57 -25 -69 -112 -22 -155 l21 -20 -32 -30 c-43 -40 -44
-99 -2 -142 56 -56 183 -36 212 33 17 41 3 93 -31 118 l-28 20 30 31 c27 26
30 35 25 71 -3 22 -14 50 -25 61 -26 25 -105 33 -148 13z m106 -36 c11 -11 20
-33 20 -50 0 -29 -29 -70 -50 -70 -20 0 -68 29 -74 45 -17 46 13 95 59 95 14
0 34 -9 45 -20z m-3 -186 c58 -37 29 -117 -45 -122 -48 -4 -72 22 -72 75 0 66
54 88 117 47z"/>
<path d="M3687 5389 c-31 -12 -67 -73 -67 -114 0 -96 81 -151 162 -109 l31 16
-7 -29 c-16 -64 -74 -113 -133 -113 -24 0 -33 -5 -33 -16 0 -26 90 -13 141 20
95 64 122 253 45 325 -28 27 -96 36 -139 20z m106 -51 c28 -37 29 -112 2 -132
-25 -19 -65 -20 -89 -3 -22 16 -36 76 -24 107 24 64 75 77 111 28z"/>
<path d="M4953 5373 c-29 -15 -53 -34 -53 -41 0 -14 13 -13 53 3 16 7 17 -4
17 -137 0 -149 -5 -168 -42 -168 -10 0 -18 -4 -18 -10 0 -6 33 -10 80 -10 64
0 80 3 80 15 0 9 -9 15 -25 15 l-26 0 1 177 c1 98 -2 179 -7 180 -4 2 -32 -9
-60 -24z"/>
<path d="M5220 5393 c-55 -20 -90 -91 -90 -180 0 -136 42 -203 127 -203 91 0
136 67 134 202 -1 91 -24 149 -71 173 -29 15 -71 18 -100 8z m85 -47 c29 -30
38 -74 33 -170 -2 -56 -9 -82 -24 -103 -26 -34 -73 -42 -96 -16 -52 61 -50
235 3 300 18 20 58 15 84 -11z"/>
<path d="M6371 5371 c-66 -32 -78 -53 -27 -44 l36 6 0 -142 c0 -141 0 -141
-25 -153 -44 -20 -27 -28 55 -28 78 0 106 13 55 26 -28 7 -29 16 -26 246 0 59
-3 109 -7 111 -4 3 -31 -7 -61 -22z"/>
<path d="M6628 5373 c-53 -29 -68 -60 -22 -42 15 5 28 8 30 6 2 -2 6 -249 4
-294 0 -7 -3 -12 -7 -12 -22 4 -43 -2 -43 -11 0 -6 33 -10 80 -10 78 0 105 12
55 24 l-25 6 0 180 c0 138 -3 180 -12 180 -7 0 -34 -12 -60 -27z"/>
<path d="M7706 5369 c-43 -23 -56 -33 -47 -42 8 -8 14 -8 23 1 33 33 38 15 38
-137 l0 -149 -25 -6 c-53 -13 -22 -26 63 -26 79 1 85 2 68 15 -11 8 -26 15
-33 15 -10 0 -13 38 -13 180 0 99 -3 180 -7 180 -5 -1 -34 -15 -67 -31z"/>
<path d="M7955 5388 c-29 -15 -45 -39 -45 -65 0 -33 35 -30 52 5 18 38 78 44
102 10 38 -53 11 -119 -95 -233 -44 -48 -67 -81 -62 -86 5 -5 59 -8 119 -7
l109 3 3 39 c3 38 3 38 -20 22 -20 -14 -138 -24 -138 -12 0 3 27 33 60 68 106
111 125 187 59 242 -23 20 -41 26 -77 26 -26 0 -56 -6 -67 -12z"/>
<path d="M9093 5373 c-60 -31 -68 -46 -20 -41 l32 3 3 -143 3 -144 -31 -11
c-50 -19 -35 -27 50 -27 82 0 99 8 55 28 l-25 12 0 175 c0 96 -3 175 -7 175
-5 0 -32 -12 -60 -27z"/>
<path d="M9323 5380 c-26 -15 -33 -27 -33 -50 0 -23 4 -30 20 -30 13 0 20 7
20 18 0 11 8 26 18 35 61 55 138 -41 82 -101 -12 -12 -32 -22 -45 -22 -34 0
-32 -26 3 -35 53 -13 72 -32 72 -75 0 -51 -27 -80 -75 -80 -34 0 -42 5 -70 45
-13 19 -14 19 -32 2 -17 -18 -17 -19 15 -48 30 -27 55 -34 107 -30 59 5 102
46 112 106 5 30 1 39 -29 69 l-34 34 23 26 c54 64 8 156 -79 156 -25 0 -56 -8
-75 -20z"/>
<path d="M877 5383 c-10 -9 -9 -93 1 -93 5 0 14 11 20 25 11 23 16 25 87 25
72 0 85 -5 66 -25 -10 -11 -151 -290 -151 -299 0 -4 10 -6 23 -6 20 0 33 21
99 168 107 239 110 212 -25 212 -62 0 -117 -3 -120 -7z"/>
<path d="M798 4364 c-54 -28 -63 -49 -18 -42 38 6 40 -1 40 -120 0 -130 -7
-170 -32 -174 -10 -2 -19 -7 -18 -12 0 -8 63 -11 143 -7 27 1 10 21 -19 21
l-24 0 0 180 c0 138 -3 180 -12 180 -7 -1 -34 -12 -60 -26z"/>
<path d="M1116 4372 c-31 -35 -146 -227 -146 -244 0 -15 10 -18 69 -18 63 0
69 -2 75 -22 10 -39 7 -48 -20 -59 -40 -14 -22 -22 47 -20 67 1 87 8 51 18
-18 4 -22 13 -22 43 0 31 4 39 20 42 12 2 21 8 21 13 0 6 -9 11 -21 13 -19 3
-20 10 -20 128 0 114 -2 124 -18 124 -11 0 -26 -8 -36 -18z m-1 -145 l0 -82
-52 -3 c-29 -2 -53 0 -53 3 0 3 15 29 33 58 19 28 41 64 51 80 9 15 17 27 19
27 1 0 2 -37 2 -83z"/>
<path d="M2178 4362 c-57 -32 -61 -47 -13 -38 l35 7 0 -146 0 -145 -26 -10
c-14 -6 -23 -13 -21 -17 4 -7 85 -9 150 -4 27 2 10 21 -19 21 l-24 0 0 180 c0
205 3 200 -82 152z"/>
<path d="M2485 4381 l-90 -6 -3 -94 -3 -93 28 7 c87 23 133 -5 133 -79 0 -46
-30 -86 -64 -86 -22 0 -59 19 -69 36 -8 13 -47 20 -47 9 0 -20 33 -63 52 -69
40 -10 88 -7 118 9 64 33 81 138 34 195 -25 29 -30 31 -88 29 l-61 -3 4 45 c1
24 5 47 7 51 2 3 38 4 79 1 72 -6 75 -5 75 16 0 11 0 24 1 28 1 10 -2 10 -106
4z"/>
<path d="M3568 4363 c-57 -31 -62 -48 -13 -40 l35 6 0 -150 0 -149 -24 0 c-14
0 -28 -4 -31 -10 -4 -6 22 -10 69 -10 42 0 78 0 81 0 15 0 3 15 -15 18 -19 3
-20 10 -20 183 0 204 3 199 -82 152z"/>
<path d="M3876 4372 c-78 -33 -119 -105 -119 -208 1 -111 39 -164 119 -164 86
0 146 77 124 159 -19 72 -89 108 -149 78 -27 -14 -31 -14 -31 -1 0 47 50 100
111 118 24 7 44 17 46 23 5 14 -64 10 -101 -5z m48 -175 c12 -9 20 -31 23 -63
6 -62 -22 -104 -68 -104 -60 0 -97 129 -47 164 27 20 68 21 92 3z"/>
<path d="M4968 4364 c-57 -29 -64 -49 -13 -40 l35 7 0 -146 c0 -108 -3 -147
-12 -149 -52 -16 -51 -20 2 -26 62 -8 122 -2 114 11 -3 5 -13 9 -24 9 -25 0
-33 67 -29 229 5 144 4 146 -73 105z"/>
<path d="M6338 4363 c-57 -31 -62 -46 -13 -37 l35 6 0 -146 0 -146 -27 -12
c-27 -11 -27 -12 24 -21 55 -10 127 -2 118 14 -4 5 -17 9 -31 9 l-24 0 0 180
c0 205 3 200 -82 153z"/>
<path d="M6581 4359 c-41 -41 -42 -89 -3 -127 l27 -27 -37 -36 c-40 -38 -47
-68 -27 -113 30 -66 158 -76 211 -17 37 42 39 101 3 136 -13 14 -29 25 -36 25
-6 0 3 13 20 29 31 29 38 59 25 109 -9 30 -53 52 -108 52 -36 0 -50 -6 -75
-31z m121 -16 c22 -20 24 -71 2 -101 -12 -17 -21 -21 -42 -16 -59 14 -80 64
-46 112 18 26 60 29 86 5z m-11 -180 c38 -23 48 -67 22 -102 -28 -37 -75 -40
-108 -7 -30 31 -32 64 -4 100 24 30 49 33 90 9z"/>
<path d="M7698 4363 c-57 -31 -62 -46 -13 -37 l35 6 0 -151 0 -151 -26 0 c-16
0 -24 -5 -22 -12 3 -8 22 -12 54 -11 27 1 61 2 77 2 34 1 36 21 2 21 l-25 0 0
180 c0 205 3 200 -82 153z"/>
<path d="M7944 4357 c-31 -28 -37 -41 -42 -85 -4 -48 -2 -54 31 -87 38 -38 74
-45 122 -23 37 16 40 5 14 -44 -29 -52 -81 -88 -125 -88 -40 0 -45 -17 -8 -26
35 -9 96 11 134 43 88 74 104 240 30 315 -23 23 -37 28 -74 28 -38 0 -52 -6
-82 -33z m121 -17 c9 -10 20 -40 23 -65 6 -56 -15 -85 -63 -85 -52 0 -85 53
-65 106 24 63 70 83 105 44z"/>
<path d="M9036 4369 c-24 -19 -36 -66 -20 -82 9 -9 34 4 34 18 0 20 35 45 62
45 60 0 77 -80 32 -151 -14 -23 -52 -70 -85 -105 -32 -35 -59 -68 -59 -74 0
-9 37 -13 163 -15 59 -1 63 1 71 48 8 42 5 44 -20 20 -12 -12 -38 -19 -85 -21
l-69 -4 66 68 c110 115 129 193 63 248 -40 34 -113 36 -153 5z"/>
<path d="M9361 4374 c-40 -28 -71 -110 -71 -187 0 -79 18 -125 62 -162 74 -62
174 -7 198 108 19 93 -3 191 -51 232 -36 30 -102 34 -138 9z m110 -40 c22 -24
24 -33 24 -134 0 -95 -3 -112 -21 -137 -16 -21 -30 -28 -55 -28 -50 0 -74 52
-74 160 1 138 63 206 126 139z"/>
<path d="M5160 4330 c0 -52 15 -68 26 -26 4 19 14 25 42 29 47 5 112 -3 112
-14 0 -5 -34 -74 -75 -152 -41 -79 -75 -149 -75 -156 0 -7 9 -11 21 -9 17 2
38 38 100 173 44 94 79 178 79 188 0 15 -12 17 -115 17 l-115 0 0 -50z"/>
<path d="M793 3365 c-33 -14 -51 -50 -39 -80 9 -24 22 -18 45 20 29 51 90 44
112 -12 17 -46 -8 -96 -98 -193 -46 -50 -81 -95 -78 -100 4 -6 57 -10 119 -10
109 0 114 1 120 23 3 12 6 31 6 41 0 18 -1 18 -18 3 -14 -13 -38 -17 -92 -17
l-73 0 76 73 c78 75 97 106 97 158 0 87 -87 134 -177 94z"/>
<path d="M1102 3355 c-57 -27 -74 -60 -22 -45 28 8 29 7 35 -33 3 -23 5 -89 3
-147 -3 -99 -4 -104 -26 -110 -50 -11 -25 -25 48 -25 73 0 105 14 58 25 -23 6
-23 8 -26 175 -1 93 -6 173 -10 177 -4 4 -31 -4 -60 -17z"/>
<path d="M2165 3367 c-40 -18 -57 -41 -53 -68 5 -34 25 -34 42 -1 8 16 26 32
38 36 31 8 72 -23 76 -58 5 -42 -41 -124 -109 -194 -82 -85 -78 -92 55 -92
l106 0 6 28 c3 15 7 33 10 40 5 17 -11 15 -26 -3 -9 -11 -32 -15 -82 -15 l-70
0 51 46 c79 71 114 128 115 186 1 38 -4 52 -25 74 -31 31 -91 40 -134 21z"/>
<path d="M2464 3374 c-32 -7 -66 -48 -62 -75 4 -34 34 -36 42 -4 9 34 48 52
81 37 37 -17 47 -53 30 -102 -18 -52 -27 -65 -108 -150 -37 -39 -67 -76 -67
-81 0 -6 46 -9 117 -7 l117 3 7 35 c9 44 1 58 -18 31 -12 -18 -25 -21 -80 -21
l-66 0 65 68 c36 37 72 81 81 99 29 55 18 125 -23 151 -22 14 -86 22 -116 16z"/>
<path d="M3543 3366 c-33 -15 -51 -52 -39 -81 8 -23 23 -18 38 12 25 51 101
50 114 -2 15 -60 -23 -130 -133 -245 -53 -55 -47 -60 76 -60 61 0 112 4 115 8
3 5 8 23 11 40 5 33 -3 40 -22 21 -6 -6 -42 -13 -80 -16 l-68 -5 62 63 c64 67
103 129 103 165 0 35 -19 79 -40 92 -33 20 -101 24 -137 8z"/>
<path d="M3843 3366 c-33 -15 -51 -52 -39 -81 10 -26 32 -16 45 20 11 31 17
35 46 35 58 0 86 -69 45 -110 -11 -11 -33 -20 -51 -20 -44 0 -37 -34 8 -38 97
-10 90 -152 -8 -152 -30 0 -42 6 -62 31 -25 33 -47 32 -47 -1 0 -60 140 -84
199 -34 53 45 51 135 -4 164 l-24 13 29 27 c38 35 41 87 8 125 -29 32 -98 42
-145 21z"/>
<path d="M4945 3373 c-53 -14 -83 -76 -50 -103 13 -11 17 -8 26 19 28 80 119
62 119 -23 0 -52 -21 -86 -106 -178 -41 -43 -72 -83 -69 -89 4 -5 57 -9 119
-9 l113 0 6 42 c3 24 4 44 2 46 -2 2 -13 -6 -24 -17 -17 -17 -33 -21 -87 -21
l-65 0 60 55 c63 59 111 140 111 187 0 42 -46 87 -95 92 -22 3 -49 2 -60 -1z"/>
<path d="M5324 3372 c-21 -14 -154 -239 -154 -260 0 -21 5 -22 70 -22 l70 0 0
-35 c0 -29 -4 -36 -25 -41 -44 -11 -16 -24 51 -24 62 0 85 12 44 23 -15 4 -20
14 -20 40 0 29 4 36 22 39 33 5 37 38 4 38 l-25 0 -3 122 c-3 116 -9 137 -34
120z m-17 -239 c-3 -2 -25 -3 -50 -1 l-46 3 47 79 47 78 3 -77 c2 -43 1 -79
-1 -82z"/>
<path d="M6342 3369 c-24 -7 -37 -19 -48 -45 -24 -58 13 -79 41 -24 9 17 21
31 28 31 56 5 92 -28 84 -78 -7 -40 -54 -110 -125 -185 -30 -31 -51 -62 -47
-67 4 -7 49 -11 116 -11 97 0 109 2 110 18 0 9 2 27 5 39 3 21 2 21 -24 7 -15
-7 -53 -14 -86 -14 l-59 0 72 75 c77 81 91 106 91 161 0 48 -15 73 -55 90 -39
16 -56 16 -103 3z"/>
<path d="M7682 3364 c-38 -20 -54 -50 -40 -76 13 -25 20 -22 46 18 21 32 27
36 55 30 39 -8 57 -30 57 -71 0 -44 -25 -84 -109 -176 -47 -52 -70 -84 -64
-90 5 -5 58 -8 118 -7 l109 3 7 35 c9 44 -2 57 -26 30 -15 -16 -31 -20 -83
-20 l-66 0 70 68 c107 104 130 185 69 242 -32 30 -99 36 -143 14z"/>
<path d="M9073 3365 c-34 -14 -53 -41 -53 -74 0 -30 34 -27 48 4 16 36 58 50
88 30 60 -39 35 -120 -73 -235 -41 -44 -72 -84 -68 -90 4 -6 53 -10 120 -10
l113 0 4 43 c6 52 3 55 -23 31 -22 -19 -139 -32 -139 -14 0 5 20 25 44 45 64
52 106 122 106 174 0 55 -14 79 -55 97 -42 17 -71 17 -112 -1z"/>
<path d="M6597 3363 c-4 -3 -7 -46 -7 -94 0 -87 10 -113 33 -90 6 6 27 11 47
11 45 0 70 -25 77 -77 11 -85 -78 -126 -136 -63 -23 26 -30 29 -40 17 -28 -35
28 -77 104 -77 52 0 90 20 111 61 16 33 19 102 4 130 -16 29 -64 49 -120 49
-54 0 -55 2 -44 59 l7 31 73 0 c72 0 74 1 74 25 0 25 -1 25 -88 25 -49 0 -92
-3 -95 -7z"/>
<path d="M8025 3351 c-101 -59 -136 -243 -63 -327 27 -31 35 -34 85 -34 49 0
59 4 89 34 29 29 34 41 34 80 0 103 -65 149 -156 111 l-36 -15 7 27 c15 61 77
113 135 113 11 0 20 7 20 15 0 21 -76 19 -115 -4z m79 -183 c20 -28 20 -81 1
-118 -13 -24 -22 -30 -49 -30 -43 0 -67 27 -73 83 -4 37 -1 48 18 66 31 29 83
28 103 -1z"/>
<path d="M9327 3363 c-4 -3 -7 -27 -7 -52 l0 -45 28 27 c24 23 36 27 90 27 34
0 62 -2 62 -4 0 -2 -36 -73 -80 -159 -44 -85 -80 -157 -80 -161 0 -3 10 -6 23
-6 15 0 26 9 34 28 6 15 43 95 82 177 39 83 71 156 71 163 0 9 -28 12 -108 12
-60 0 -112 -3 -115 -7z"/>
<path d="M773 2360 c-28 -11 -56 -53 -51 -77 6 -31 33 -26 49 9 12 27 20 34
51 36 28 2 40 -2 52 -20 38 -54 9 -123 -96 -234 -47 -50 -68 -78 -61 -85 6 -6
55 -9 118 -7 l109 3 8 34 c10 37 2 55 -13 28 -8 -14 -24 -17 -86 -17 l-76 0
75 78 c107 109 123 180 56 237 -31 26 -90 33 -135 15z"/>
<path d="M1072 2350 c-43 -26 -57 -63 -42 -112 6 -21 20 -42 31 -48 18 -10 18
-13 -16 -44 -38 -36 -44 -66 -23 -111 16 -36 57 -55 119 -55 45 0 55 4 85 34
54 54 45 113 -23 158 -20 12 -23 18 -11 18 25 0 58 48 58 84 -1 80 -101 123
-178 76z m108 -37 c34 -44 13 -113 -35 -113 -24 0 -75 51 -75 74 0 25 41 66
65 66 14 0 33 -11 45 -27z m-24 -169 c73 -35 56 -134 -23 -134 -66 0 -95 69
-52 124 24 31 30 31 75 10z"/>
<path d="M2137 2354 c-28 -15 -52 -58 -41 -75 12 -19 40 -8 51 21 10 25 17 30
46 30 45 0 80 -39 71 -79 -10 -43 -49 -102 -119 -179 -36 -40 -63 -78 -60 -83
4 -5 55 -9 115 -9 116 0 120 2 120 57 0 25 -1 25 -18 10 -14 -12 -37 -17 -87
-17 l-68 0 75 78 c87 90 107 133 89 193 -19 63 -106 90 -174 53z"/>
<path d="M2442 2350 c-42 -26 -66 -80 -57 -130 7 -44 30 -71 74 -90 27 -11 38
-10 71 3 48 18 52 9 20 -52 -19 -37 -44 -53 -128 -77 -22 -6 -3 -24 26 -24 34
0 102 31 124 56 10 11 27 42 39 69 17 39 21 62 17 120 -3 42 -11 81 -22 96
-33 51 -107 64 -164 29z m115 -49 c27 -41 30 -92 6 -113 -56 -48 -123 -17
-123 56 0 92 71 126 117 57z"/>
<path d="M3535 2358 c-29 -15 -45 -39 -45 -65 0 -31 24 -29 44 2 10 14 28 31
42 37 21 10 28 8 49 -12 47 -44 22 -110 -47 -125 -39 -9 -30 -29 17 -36 46 -8
65 -31 65 -79 0 -46 -25 -70 -73 -70 -29 0 -41 6 -59 30 -25 34 -48 39 -48 11
0 -72 141 -101 205 -41 48 45 38 148 -16 165 -21 7 -21 7 5 34 62 64 15 161
-77 161 -23 0 -51 -6 -62 -12z"/>
<path d="M3844 2351 c-17 -11 -41 -40 -54 -66 -19 -40 -22 -58 -18 -128 7
-126 44 -178 127 -179 86 -1 136 70 135 192 -1 159 -89 243 -190 181z m81 -21
c35 -13 56 -67 57 -149 1 -127 -31 -183 -96 -167 -34 8 -56 53 -63 131 -7 79
10 148 45 175 29 23 24 23 57 10z"/>
<path d="M4953 2355 c-39 -17 -54 -58 -30 -82 14 -14 17 -12 32 16 9 18 27 37
40 43 65 29 107 -75 49 -121 -15 -12 -35 -21 -45 -21 -11 0 -19 -7 -19 -15 0
-10 10 -15 29 -15 64 0 101 -72 61 -123 -38 -48 -112 -34 -134 27 -5 15 -9 16
-21 6 -21 -18 -19 -37 10 -65 20 -21 34 -25 81 -25 89 0 134 38 134 114 0 35
-12 54 -48 79 l-24 15 22 12 c28 15 43 57 35 98 -11 61 -97 90 -172 57z"/>
<path d="M5245 2348 c-60 -31 -76 -63 -26 -48 16 4 32 6 35 2 3 -3 6 -68 6
-144 l0 -138 -25 -10 c-50 -19 -27 -31 53 -28 75 3 99 17 50 28 -23 6 -23 7
-26 183 -2 132 -6 177 -15 177 -6 -1 -30 -10 -52 -22z"/>
</g>
</svg>
